<mxfile host="app.diagrams.net" modified="2022-08-31T04:23:17.647Z" agent="5.0 (Macintosh; Intel Mac OS X 10_15_6) AppleWebKit/605.1.15 (KHTML, like Gecko) Version/15.6.1 Safari/605.1.15" etag="1QW0FGH_z_dHJVnoU4Gt" version="20.2.7" type="github">
  <diagram id="MC8cG66vaABodUtqTA2X" name="Page-1">
    <mxGraphModel dx="1164" dy="1064" grid="1" gridSize="10" guides="1" tooltips="1" connect="1" arrows="1" fold="1" page="1" pageScale="1" pageWidth="827" pageHeight="1169" math="0" shadow="0">
      <root>
        <mxCell id="0" />
        <mxCell id="1" parent="0" />
        <mxCell id="2hz4RC08jjyMRnIOTYXO-5" value="" style="edgeStyle=orthogonalEdgeStyle;rounded=0;orthogonalLoop=1;jettySize=auto;html=1;fontSize=18;" edge="1" parent="1" source="2hz4RC08jjyMRnIOTYXO-1" target="2hz4RC08jjyMRnIOTYXO-4">
          <mxGeometry relative="1" as="geometry" />
        </mxCell>
        <mxCell id="2hz4RC08jjyMRnIOTYXO-1" value="&lt;font style=&quot;font-size: 18px;&quot;&gt;Start&lt;/font&gt;" style="rounded=1;whiteSpace=wrap;html=1;" vertex="1" parent="1">
          <mxGeometry x="280" y="20" width="120" height="60" as="geometry" />
        </mxCell>
        <mxCell id="2hz4RC08jjyMRnIOTYXO-11" value="" style="edgeStyle=orthogonalEdgeStyle;rounded=0;orthogonalLoop=1;jettySize=auto;html=1;fontFamily=Helvetica;fontSize=16;fontColor=default;" edge="1" parent="1" source="2hz4RC08jjyMRnIOTYXO-4" target="2hz4RC08jjyMRnIOTYXO-10">
          <mxGeometry relative="1" as="geometry" />
        </mxCell>
        <mxCell id="2hz4RC08jjyMRnIOTYXO-4" value="&lt;font style=&quot;font-size: 16px;&quot;&gt;Wake up&lt;/font&gt;" style="whiteSpace=wrap;html=1;rounded=1;" vertex="1" parent="1">
          <mxGeometry x="120" y="80" width="120" height="60" as="geometry" />
        </mxCell>
        <mxCell id="2hz4RC08jjyMRnIOTYXO-13" value="" style="edgeStyle=orthogonalEdgeStyle;rounded=0;orthogonalLoop=1;jettySize=auto;html=1;fontFamily=Helvetica;fontSize=15;fontColor=default;" edge="1" parent="1" source="2hz4RC08jjyMRnIOTYXO-10" target="2hz4RC08jjyMRnIOTYXO-12">
          <mxGeometry relative="1" as="geometry" />
        </mxCell>
        <mxCell id="2hz4RC08jjyMRnIOTYXO-10" value="&lt;font style=&quot;font-size: 15px;&quot;&gt;Shower&lt;/font&gt;" style="whiteSpace=wrap;html=1;rounded=1;" vertex="1" parent="1">
          <mxGeometry x="120" y="180" width="120" height="60" as="geometry" />
        </mxCell>
        <mxCell id="2hz4RC08jjyMRnIOTYXO-15" value="" style="edgeStyle=orthogonalEdgeStyle;rounded=0;orthogonalLoop=1;jettySize=auto;html=1;fontFamily=Helvetica;fontSize=15;fontColor=default;" edge="1" parent="1" source="2hz4RC08jjyMRnIOTYXO-12" target="2hz4RC08jjyMRnIOTYXO-14">
          <mxGeometry relative="1" as="geometry" />
        </mxCell>
        <mxCell id="2hz4RC08jjyMRnIOTYXO-12" value="Pack &lt;font style=&quot;font-size: 13px;&quot;&gt;Bag&lt;/font&gt;" style="whiteSpace=wrap;html=1;rounded=1;" vertex="1" parent="1">
          <mxGeometry x="120" y="320" width="120" height="60" as="geometry" />
        </mxCell>
        <mxCell id="2hz4RC08jjyMRnIOTYXO-17" value="" style="edgeStyle=orthogonalEdgeStyle;rounded=0;orthogonalLoop=1;jettySize=auto;html=1;fontFamily=Helvetica;fontSize=15;fontColor=default;" edge="1" parent="1" source="2hz4RC08jjyMRnIOTYXO-14" target="2hz4RC08jjyMRnIOTYXO-16">
          <mxGeometry relative="1" as="geometry" />
        </mxCell>
        <mxCell id="2hz4RC08jjyMRnIOTYXO-18" value="Go down elevator" style="edgeLabel;html=1;align=center;verticalAlign=middle;resizable=0;points=[];fontSize=15;fontFamily=Helvetica;fontColor=default;" vertex="1" connectable="0" parent="2hz4RC08jjyMRnIOTYXO-17">
          <mxGeometry x="-0.1036" y="1" relative="1" as="geometry">
            <mxPoint as="offset" />
          </mxGeometry>
        </mxCell>
        <mxCell id="2hz4RC08jjyMRnIOTYXO-14" value="Go &amp;nbsp;out of room" style="whiteSpace=wrap;html=1;rounded=1;" vertex="1" parent="1">
          <mxGeometry x="120" y="460" width="120" height="60" as="geometry" />
        </mxCell>
        <mxCell id="2hz4RC08jjyMRnIOTYXO-20" value="" style="edgeStyle=orthogonalEdgeStyle;rounded=0;orthogonalLoop=1;jettySize=auto;html=1;fontFamily=Helvetica;fontSize=15;fontColor=default;" edge="1" parent="1" source="2hz4RC08jjyMRnIOTYXO-16" target="2hz4RC08jjyMRnIOTYXO-19">
          <mxGeometry relative="1" as="geometry" />
        </mxCell>
        <mxCell id="2hz4RC08jjyMRnIOTYXO-16" value="Walk to BTS" style="whiteSpace=wrap;html=1;rounded=1;" vertex="1" parent="1">
          <mxGeometry x="120" y="600" width="120" height="60" as="geometry" />
        </mxCell>
        <mxCell id="2hz4RC08jjyMRnIOTYXO-22" value="" style="edgeStyle=orthogonalEdgeStyle;rounded=0;orthogonalLoop=1;jettySize=auto;html=1;fontFamily=Helvetica;fontSize=15;fontColor=default;" edge="1" parent="1" source="2hz4RC08jjyMRnIOTYXO-19" target="2hz4RC08jjyMRnIOTYXO-21">
          <mxGeometry relative="1" as="geometry" />
        </mxCell>
        <mxCell id="2hz4RC08jjyMRnIOTYXO-19" value="Go down BTS at Siam" style="whiteSpace=wrap;html=1;rounded=1;" vertex="1" parent="1">
          <mxGeometry x="320" y="600" width="120" height="60" as="geometry" />
        </mxCell>
        <mxCell id="2hz4RC08jjyMRnIOTYXO-24" value="" style="edgeStyle=orthogonalEdgeStyle;rounded=0;orthogonalLoop=1;jettySize=auto;html=1;fontFamily=Helvetica;fontSize=15;fontColor=default;" edge="1" parent="1" source="2hz4RC08jjyMRnIOTYXO-21" target="2hz4RC08jjyMRnIOTYXO-23">
          <mxGeometry relative="1" as="geometry" />
        </mxCell>
        <mxCell id="2hz4RC08jjyMRnIOTYXO-21" value="Walk to school" style="whiteSpace=wrap;html=1;rounded=1;" vertex="1" parent="1">
          <mxGeometry x="320" y="740" width="120" height="60" as="geometry" />
        </mxCell>
        <mxCell id="2hz4RC08jjyMRnIOTYXO-26" value="" style="edgeStyle=orthogonalEdgeStyle;rounded=0;orthogonalLoop=1;jettySize=auto;html=1;fontFamily=Helvetica;fontSize=15;fontColor=default;" edge="1" parent="1" source="2hz4RC08jjyMRnIOTYXO-23" target="2hz4RC08jjyMRnIOTYXO-25">
          <mxGeometry relative="1" as="geometry" />
        </mxCell>
        <mxCell id="2hz4RC08jjyMRnIOTYXO-23" value="Arrive at school" style="whiteSpace=wrap;html=1;rounded=1;" vertex="1" parent="1">
          <mxGeometry x="320" y="880" width="120" height="60" as="geometry" />
        </mxCell>
        <mxCell id="2hz4RC08jjyMRnIOTYXO-25" value="&lt;font style=&quot;font-size: 15px;&quot;&gt;End&lt;/font&gt;" style="whiteSpace=wrap;html=1;rounded=1;" vertex="1" parent="1">
          <mxGeometry x="320" y="1020" width="120" height="60" as="geometry" />
        </mxCell>
      </root>
    </mxGraphModel>
  </diagram>
</mxfile>
